<svg id="Calque_1" data-name="Calque 1" xmlns="http://www.w3.org/2000/svg" viewBox="0 0 24 24">
  <path d="M6.219,15.415A2.49,2.49,0,0,0,8.708,17.68h9.069a2.49,2.49,0,0,0,2.49-2.268L20.935,7.9a1.5,1.5,0,0,0-1.494-1.641H6.409L6.271,4.437A1.759,1.759,0,0,0,4.525,2.821H3.559a.5.5,0,0,0,0,1h.966a.752.752,0,0,1,.748.692Zm13.052-.094a1.493,1.493,0,0,1-1.494,1.359H8.708a1.493,1.493,0,0,1-1.493-1.357L6.487,7.255H19.441a.5.5,0,0,1,.5.55Z" style="fill: #1e1e23"/>
  <circle cx="9.947" cy="19.679" r="1" style="fill: #1e1e23"/>
  <circle cx="16.436" cy="19.679" r="1" style="fill: #1e1e23"/>
</svg>
