<svg id="Calque_1" data-name="Calque 1" xmlns="http://www.w3.org/2000/svg" viewBox="0 0 24 24">
  <g>
    <path d="M17.918,7.835,19.06,6.693a.5.5,0,0,0-.707-.707L17.211,7.127A7.854,7.854,0,0,0,12.5,5.173V4.061h1.587a.5.5,0,0,0,0-1H9.913a.5.5,0,0,0,0,1H11.5V5.173a7.909,7.909,0,1,0,6.418,2.662ZM12,19.939a6.9,6.9,0,1,1,6.9-6.9A6.9,6.9,0,0,1,12,19.939Z" style="fill: #1e1e23"/>
    <path d="M12,7.84a.5.5,0,0,0-.5.5v4.7a.5.5,0,0,0,1,0V8.34A.5.5,0,0,0,12,7.84Z" style="fill: #1e1e23"/>
  </g>
</svg>
